<svg version="1.1" id="Layer_1" xmlns="http://www.w3.org/2000/svg" xmlns:xlink="http://www.w3.org/1999/xlink" x="0px" y="0px"
	 viewBox="0 0 512 512" style="enable-background:new 0 0 512 512;" xml:space="preserve">
<style type="text/css">
	.st0{fill-rule:evenodd;clip-rule:evenodd;}
</style>
<g>
	<path class="st0" d="M261.3,378.7c-7.1-7.1-7.2-18.7,0-25.9l0,0l96.8-96.8l-96.8-96.8c-7.1-7.2-7.1-18.7,0-25.9
		c7.2-7.1,18.7-7.1,25.9,0L397,243c7.1,7.1,7.2,18.7,0,25.9l0,0L287.2,378.7C280.1,385.8,268.5,385.8,261.3,378.7L261.3,378.7z"/>
	<path class="st0" d="M0,256c0-10.1,8.2-18.3,18.3-18.3h329.1c10.1,0,18.3,8.2,18.3,18.3s-8.2,18.3-18.3,18.3H18.3
		C8.2,274.3,0,266.1,0,256z"/>
	<path class="st0" d="M457.1,493.7c30.3,0,54.9-24.6,54.9-54.9V73.1c0-30.3-24.6-54.9-54.9-54.9H164.6c-30.3,0-54.9,24.6-54.9,54.9
		V128c0,10.1,8.2,18.3,18.3,18.3s18.3-8.2,18.3-18.3V73.1c0-10.1,8.2-18.3,18.3-18.3h292.6c10.1,0,18.3,8.2,18.3,18.3v365.7
		c0,10.1-8.2,18.3-18.3,18.3H164.6c-10.1,0-18.3-8.2-18.3-18.3V384c0-10.1-8.2-18.3-18.3-18.3s-18.3,8.2-18.3,18.3v54.9
		c0,30.3,24.6,54.9,54.9,54.9H457.1z"/>
</g>
</svg>