<?xml version="1.0" encoding="UTF-8" standalone="no"?>
<svg width="160" height="160" xmlns="http://www.w3.org/2000/svg">
  <!-- Outer Circle -->
  <circle cx="80" cy="80" r="80" fill="none" stroke="#000000" stroke-width="1" id="circle1" />

  <linearGradient id="gradient" x1="0%" y1="0%" x2="100%" y2="0%">
    <stop offset="0%" style="stop-color: red; stop-opacity: 1" />
    <stop offset="100%" style="stop-color: blue; stop-opacity: 1" />
  </linearGradient>
  <!-- Lines Connecting the Circles -->
  <g id="linesGroup">
    <!-- Calculate and replicate lines every 10 degrees -->
    <line x1="80" y1="0" x2="80" y2="80" stroke="#000000" stroke-width="1" id="line1" />

    <!-- Lines created and rotated every 10 degrees -->
    <line x1="80" y1="0" x2="80" y2="80" stroke="#000000" stroke-width="1" id="line2" transform="rotate(10 80 80)" />
    <line x1="80" y1="0" x2="80" y2="80" stroke="#000000" stroke-width="1" id="line3" transform="rotate(20 80 80)" />
    <line x1="80" y1="0" x2="80" y2="80" stroke="#000000" stroke-width="1" id="line4" transform="rotate(30 80 80)" />
    <line x1="80" y1="0" x2="80" y2="80" stroke="#000000" stroke-width="1" id="line5" transform="rotate(40 80 80)" />
    <line x1="80" y1="0" x2="80" y2="80" stroke="#000000" stroke-width="1" id="line6" transform="rotate(50 80 80)" />
    <line x1="80" y1="0" x2="80" y2="80" stroke="#000000" stroke-width="1" id="line7" transform="rotate(60 80 80)" />
    <line x1="80" y1="0" x2="80" y2="80" stroke="#000000" stroke-width="1" id="line8" transform="rotate(70 80 80)" />
    <line x1="80" y1="0" x2="80" y2="80" stroke="#000000" stroke-width="1" id="line9" transform="rotate(80 80 80)" />
    <line x1="80" y1="0" x2="80" y2="80" stroke="#000000" stroke-width="1" id="line10" transform="rotate(90 80 80)" />
    <line x1="80" y1="0" x2="80" y2="80" stroke="#000000" stroke-width="1" id="line11" transform="rotate(100 80 80)" />
    <line x1="80" y1="0" x2="80" y2="80" stroke="#000000" stroke-width="1" id="line12" transform="rotate(110 80 80)" />
    <line x1="80" y1="0" x2="80" y2="80" stroke="#000000" stroke-width="1" id="line13" transform="rotate(120 80 80)" />
    <line x1="80" y1="0" x2="80" y2="80" stroke="#000000" stroke-width="1" id="line14" transform="rotate(130 80 80)" />
    <line x1="80" y1="0" x2="80" y2="80" stroke="#000000" stroke-width="1" id="line15" transform="rotate(140 80 80)" />
    <line x1="80" y1="0" x2="80" y2="80" stroke="#000000" stroke-width="1" id="line16" transform="rotate(150 80 80)" />
    <line x1="80" y1="0" x2="80" y2="80" stroke="#000000" stroke-width="1" id="line17" transform="rotate(160 80 80)" />
    <line x1="80" y1="0" x2="80" y2="80" stroke="#000000" stroke-width="1" id="line18" transform="rotate(170 80 80)" />
    <line x1="80" y1="0" x2="80" y2="80" stroke="#000000" stroke-width="1" id="line19" transform="rotate(180 80 80)" />
    <line x1="80" y1="0" x2="80" y2="80" stroke="#000000" stroke-width="1" id="line20" transform="rotate(190 80 80)" />
    <line x1="80" y1="0" x2="80" y2="80" stroke="#000000" stroke-width="1" id="line21" transform="rotate(200 80 80)" />
    <line x1="80" y1="0" x2="80" y2="80" stroke="#000000" stroke-width="1" id="line22" transform="rotate(210 80 80)" />
    <line x1="80" y1="0" x2="80" y2="80" stroke="#000000" stroke-width="1" id="line23" transform="rotate(220 80 80)" />
    <line x1="80" y1="0" x2="80" y2="80" stroke="#000000" stroke-width="1" id="line24" transform="rotate(230 80 80)" />
    <line x1="80" y1="0" x2="80" y2="80" stroke="#000000" stroke-width="1" id="line25" transform="rotate(240 80 80)" />
    <line x1="80" y1="0" x2="80" y2="80" stroke="#000000" stroke-width="1" id="line26" transform="rotate(250 80 80)" />
    <line x1="80" y1="0" x2="80" y2="80" stroke="#000000" stroke-width="1" id="line27" transform="rotate(260 80 80)" />
    <line x1="80" y1="0" x2="80" y2="80" stroke="#000000" stroke-width="1" id="line28" transform="rotate(270 80 80)" />
    <line x1="80" y1="0" x2="80" y2="80" stroke="#000000" stroke-width="1" id="line29" transform="rotate(280 80 80)" />
    <line x1="80" y1="0" x2="80" y2="80" stroke="#000000" stroke-width="1" id="line30" transform="rotate(290 80 80)" />
    <line x1="80" y1="0" x2="80" y2="80" stroke="#000000" stroke-width="1" id="line31" transform="rotate(300 80 80)" />
    <line x1="80" y1="0" x2="80" y2="80" stroke="#000000" stroke-width="1" id="line32" transform="rotate(310 80 80)" />
    <line x1="80" y1="0" x2="80" y2="80" stroke="#000000" stroke-width="1" id="line33" transform="rotate(320 80 80)" />
    <line x1="80" y1="0" x2="80" y2="80" stroke="#000000" stroke-width="1" id="line34" transform="rotate(330 80 80)" />
    <line x1="80" y1="0" x2="80" y2="80" stroke="#000000" stroke-width="1" id="line35" transform="rotate(340 80 80)" />
    <line x1="80" y1="0" x2="80" y2="80" stroke="#000000" stroke-width="1" id="line36" transform="rotate(350 80 80)" />
  </g>

  <!-- Inner Circle -->
  <circle cx="80" cy="80" r="75" fill="none" stroke="#000000" stroke-width="1" id="circle2" clip-path="url(#circleClip)" />
</svg>
