<?xml version="1.0" encoding="UTF-8" standalone="no"?>
<svg xmlns="http://www.w3.org/2000/svg" xmlns:xlink="http://www.w3.org/1999/xlink" width="300" height="300" viewBox="0 0 300 300" id="windRing">
    <g id="runwayGroup">
        <rect transform="matrix(1,0,0,-1,151.88623,148.711258)" style="stroke:#6d7786;stroke-width:0.050000mm;fill:#263241" x="-74.606987" y="-11.935211" width="149.213974" height="23.870422"/>
    </g>
    <g id="ringGroup">
        <circle transform="matrix(1,0,0,-1,150.5,149.5)" style="stroke:#0000ff;stroke-width:0.050000mm;fill:none" r="109.5" cx="0" cy="0"/>
        <circle transform="matrix(1,0,0,-1,150.5,149.5)" style="stroke:#0000ff;stroke-width:0.050000mm;fill:none" r="98.5" cx="0" cy="0"/>
    </g>
    <g id="windDirChevronRotate">
        <g id="windDirChevronScale">
            <g id="windDirChevron">
                <path transform="matrix(0.197752,0,0,-0.197752,6.725204,282.32518)" style="stroke:#3fd4ff;stroke-width:0.252843mm;fill:#3fd4ff" d="M862.425659,999.089783C882.184753,991.880493,898.493469,985.839844,898.667175,985.666138C898.981628,985.351685,886.603149,950.705811,883.765808,943.958923C882.411255,940.737915,880.975952,939.815735,867.888306,933.75708C859.974731,930.093628,846.299988,923.73407,837.5,919.624695C825.348022,913.950012,821.22821,912.435303,820.369995,913.326538C819.748474,913.971924,815.625183,922.375,811.207092,932C806.789001,941.625,800.634155,954.878723,797.529602,961.452759C793.418579,970.15802,792.054077,974.079224,792.507324,975.885254C792.997864,977.839661,804.452026,1009.381165,807.510681,1017.200256C808.111633,1018.736511,809.059082,1018.577332,817.337891,1015.549011C822.377075,1013.70575,842.666565,1006.299072,862.425659,999.089783z"/>
            </g>
        </g>
    </g>
    <g id="headwindChevronRotate">
        <g id="headwindChevronScale">
            <g id="headwindChevron">
                <path transform="matrix(0.197752,0,0,-0.197752,6.725204,282.32518)" style="stroke:#ffd84d;stroke-width:0.252843mm;fill:#ffd84d" d="M353.244965,913.099182C364.527893,907.653748,373.982605,902.816223,374.255432,902.349182C374.528259,901.882141,369.631256,891,363.37326,878.166687C347.399963,845.410339,332.717896,815.575989,332.3284,815.082764C332.147186,814.853333,322.336761,819.353333,310.527466,825.082764L289.056061,835.5L286.395599,843.5C284.932343,847.900024,280.212769,861.474854,275.907623,873.66626C271.602509,885.857727,267.799927,896.948975,267.457458,898.313538C266.715668,901.268982,266.04538,900.98468,302.339447,913.111694C315.627747,917.551758,327.174988,921.579346,328,922.06189C328.825012,922.544373,330.226868,922.952881,331.115265,922.969604C332.003662,922.986328,341.962036,918.544617,353.244965,913.099182z"/>
            </g>
        </g>
    </g>
    <g id="crosswindChevronRotate">
        <g id="crosswindChevronScale">
            <g id="crosswindChevron">
                <path transform="matrix(0.197752,0,0,-0.197752,6.725204,282.32518)" style="stroke:#ffd84d;stroke-width:0.252843mm;fill:#ffd84d" d="M444.323639,830.164734L466.147247,822.349243L470.688354,812.424622C473.185974,806.966064,479.45285,793.399231,484.614746,782.276001C489.776642,771.152832,493.98877,761.477844,493.975037,760.776001C493.961304,760.074219,489.348816,757.400696,483.725037,754.834839C478.101257,752.268982,464.400421,745.90155,453.278717,740.684998L433.057465,731.200378L411.778717,738.850159C400.075439,743.057556,389.988373,746.832642,389.363037,747.239136C388.57019,747.754578,390.177673,753.353821,394.674225,765.739136C398.220734,775.507629,405.416382,795.424988,410.664551,810C420.795166,838.134155,420.743896,838.005371,421.809021,837.990112C422.189056,837.98468,432.320618,834.463257,444.323639,830.164734z"/>
            </g>
        </g>
    </g>
    <g id="aircraftGroup" transform="translate(153.46 150.6) scale(0.5) translate(-153.46 -150.6)">
        <path transform="matrix(0.938646,-0.344882,-0.344882,-0.938646,59.943199,344.2276)" style="stroke:#f4f7fb;stroke-width:0.050000mm;fill:#f4f7fb" d="M135.036682,151.501633L148.390869,112.055519L153.901794,109.9272L151.99382,145.026215L175.92334,138.653107L178.877609,127.026169L182.26944,126.125008L182,139L191.511642,149.653107L187.223129,151.365219L178.606689,144.849777L155,155L179.687378,180.378342L173.627518,182.797363L138.511154,161.242447L123.203224,165.569427L119.799423,164.957748L117.043266,163.525162L117.731392,161.202118L120.363998,158.018814L135.036682,151.501633z"/>
    </g>
    <circle id="centerMark" transform="matrix(1,0,0,-1,150,150)" style="stroke:#ffffff;stroke-width:0.050000mm;fill:#ffffff" r="0.32605" cx="0" cy="0"/>
</svg>
